<?xml version="1.0" encoding="UTF-8"?>
<svg xmlns="http://www.w3.org/2000/svg" version="1.1" viewBox="0 0 1064 227.5">
  <defs>
    <style>
      .cls-1 {
        fill: none;
      }

      .cls-2 {
        fill: #fff;
      }
    </style>
  </defs>
  <!-- Generator: Adobe Illustrator 28.6.0, SVG Export Plug-In . SVG Version: 1.2.0 Build 709)  -->
  <g>
    <g id="Layer_1">
      <g>
        <path class="cls-1" d="M685,114c0-58.3,45.8-109.2,109.5-109.2H-.1v4.3h37.3l57,164.5,15.9-47.4h-25.6v-29.2h35.4l29.5-87.8h37.1l-21.7,60.1,9.2,27.7h35.3v29.2h-25.6l15.7,47.4L254.6,9.1h37.3l-73.4,210.5h-37.1l-30.8-93.5h-6l-32.5,93.5h-37.1L-.1,9.1v214.3h794.6c-63.7,0-109.5-51.1-109.5-109.5ZM444.6,42.4h-80.3v54h73.7v30.9h-73.7v58.8h80.3v33.5h-115.3V9.1h115.3v33.2ZM531.8,219.6h-39.9V8.6h39.9c79.8,0,114.8,47.8,114.8,105.1s-35,105.9-114.8,105.9Z"/>
        <polygon class="cls-1" points="984.7 96.3 1058.4 96.3 1058.4 127.3 984.7 127.3 984.7 186.1 1065 186.1 1065 42.4 984.7 42.4 984.7 96.3"/>
        <path class="cls-1" d="M535.7,43.6h-8.7v140.7h8.7c51.4,0,75.7-30.7,75.7-70.6s-24.3-70.1-75.7-70.1Z"/>
        <path class="cls-1" d="M949.7,219.6h0,0V9.1h115.3v-4.3h-270.6c52.4,0,93.1,35.3,104.9,80.3h-40.2c-8.7-26.3-34.3-45.3-64.7-45.3-43.7,0-74.9,33.5-74.9,74.7s31,74.7,74.7,74.7,59.1-20.5,67.5-49.1h-81.1v-31h122.2c3.6,60.6-43.7,114.3-108.4,114.3h270.6v-3.8h-115.3Z"/>
        <polygon class="cls-2" points="164.8 69.2 186.5 9.1 149.5 9.1 120 96.9 174 96.9 164.8 69.2"/>
        <path class="cls-2" d="M902.9,109.1h-122.2v31h81.1c-8.4,28.6-35.8,49.1-67.5,49.1s-74.7-33.5-74.7-74.7,31.2-74.7,74.9-74.7,56,18.9,64.7,45.3h40.2c-11.8-45-52.4-80.3-104.9-80.3s-109.5,50.9-109.5,109.2,45.8,109.5,109.5,109.5h0c64.7,0,112-53.7,108.4-114.3Z"/>
        <polygon class="cls-2" points="181.4 219.6 218.5 219.6 291.9 9.1 254.6 9.1 199.3 173.6 183.6 126.1 150.6 126.1 181.4 219.6"/>
        <polygon class="cls-2" points="949.7 219.6 1065 219.6 1065 186.1 984.7 186.1 984.7 127.3 1058.4 127.3 1058.4 96.3 984.7 96.3 984.7 42.4 1065 42.4 1065 9.1 949.7 9.1 949.7 219.6"/>
        <polygon class="cls-2" points="329.3 219.6 444.6 219.6 444.6 186.1 364.3 186.1 364.3 127.3 438 127.3 438 96.3 364.3 96.3 364.3 42.4 444.6 42.4 444.6 9.1 329.3 9.1 329.3 219.6"/>
        <polygon class="cls-2" points="112.1 219.6 144.6 126.1 110.2 126.1 94.2 173.6 37.2 9.1 -.1 9.1 75 219.6 112.1 219.6"/>
        <path class="cls-2" d="M531.8,8.6h-39.9v211h39.9c79.8,0,114.8-48.6,114.8-105.9s-35-105.1-114.8-105.1ZM535.7,184.3h-8.7V43.6h8.7c51.4,0,75.7,30.2,75.7,70.1s-24.3,70.6-75.7,70.6Z"/>
        <polygon points="144.6 126.1 150.6 126.1 147.7 117.3 144.6 126.1"/>
      </g>
    </g>
  </g>
</svg>